<svg width="35" height="40" viewBox="0 0 35 40" fill="none" xmlns="http://www.w3.org/2000/svg">
<path d="M10.5625 1.38281L10 2.5H2.5C1.11719 2.5 0 3.61719 0 5C0 6.38281 1.11719 7.5 2.5 7.5H32.5C33.8828 7.5 35 6.38281 35 5C35 3.61719 33.8828 2.5 32.5 2.5H25L24.4375 1.38281C24.0156 0.53125 23.1484 0 22.2031 0H12.7969C11.8516 0 10.9844 0.53125 10.5625 1.38281ZM32.5 10H2.5L4.15625 36.4844C4.28125 38.4609 5.92187 40 7.89844 40H27.1016C29.0781 40 30.7187 38.4609 30.8437 36.4844L32.5 10Z" fill="#A80606"/>
</svg>
